<mxfile host="app.diagrams.net" modified="2022-04-14T03:44:56.522Z" agent="5.0 (Windows NT 10.0; Win64; x64) AppleWebKit/537.36 (KHTML, like Gecko) Chrome/97.0.4692.71 Safari/537.36" etag="cRqB0Fa_OagP9XeGS3N0" version="17.4.4" type="github">
  <diagram id="m290UNyLzOcbofIc1KVv" name="Page-1">
    <mxGraphModel dx="2249" dy="754" grid="1" gridSize="10" guides="1" tooltips="1" connect="1" arrows="1" fold="1" page="1" pageScale="1" pageWidth="827" pageHeight="1169" math="0" shadow="0">
      <root>
        <mxCell id="0" />
        <mxCell id="1" parent="0" />
        <mxCell id="d0BUJUt-M7fwxduHEvuQ-17" style="edgeStyle=orthogonalEdgeStyle;rounded=0;orthogonalLoop=1;jettySize=auto;html=1;exitX=0.5;exitY=1;exitDx=0;exitDy=0;" parent="1" source="d0BUJUt-M7fwxduHEvuQ-1" edge="1">
          <mxGeometry relative="1" as="geometry">
            <mxPoint x="427" y="220" as="targetPoint" />
          </mxGeometry>
        </mxCell>
        <mxCell id="d0BUJUt-M7fwxduHEvuQ-1" value="reducer" style="whiteSpace=wrap;html=1;aspect=fixed;fillColor=#dae8fc;strokeColor=#6c8ebf;" parent="1" vertex="1">
          <mxGeometry x="387" y="120" width="80" height="80" as="geometry" />
        </mxCell>
        <mxCell id="d0BUJUt-M7fwxduHEvuQ-11" style="edgeStyle=orthogonalEdgeStyle;rounded=0;orthogonalLoop=1;jettySize=auto;html=1;exitX=0.5;exitY=1;exitDx=0;exitDy=0;" parent="1" source="d0BUJUt-M7fwxduHEvuQ-2" edge="1">
          <mxGeometry relative="1" as="geometry">
            <mxPoint x="830" y="220" as="targetPoint" />
          </mxGeometry>
        </mxCell>
        <mxCell id="d0BUJUt-M7fwxduHEvuQ-2" value="store" style="whiteSpace=wrap;html=1;aspect=fixed;fillColor=#fff2cc;strokeColor=#d6b656;" parent="1" vertex="1">
          <mxGeometry x="790" y="120" width="80" height="80" as="geometry" />
        </mxCell>
        <mxCell id="d0BUJUt-M7fwxduHEvuQ-6" style="edgeStyle=orthogonalEdgeStyle;rounded=0;orthogonalLoop=1;jettySize=auto;html=1;exitX=0.5;exitY=1;exitDx=0;exitDy=0;" parent="1" source="d0BUJUt-M7fwxduHEvuQ-3" edge="1">
          <mxGeometry relative="1" as="geometry">
            <mxPoint x="15" y="220" as="targetPoint" />
          </mxGeometry>
        </mxCell>
        <mxCell id="d0BUJUt-M7fwxduHEvuQ-3" value="Context" style="whiteSpace=wrap;html=1;aspect=fixed;fillColor=#d5e8d4;strokeColor=#82b366;" parent="1" vertex="1">
          <mxGeometry x="-25" y="120" width="80" height="80" as="geometry" />
        </mxCell>
        <mxCell id="jBV2tDPOlEG2usraaHUX-2" style="edgeStyle=orthogonalEdgeStyle;rounded=0;orthogonalLoop=1;jettySize=auto;html=1;exitX=0.5;exitY=1;exitDx=0;exitDy=0;" edge="1" parent="1" source="d0BUJUt-M7fwxduHEvuQ-4">
          <mxGeometry relative="1" as="geometry">
            <mxPoint x="15" y="510" as="targetPoint" />
          </mxGeometry>
        </mxCell>
        <mxCell id="d0BUJUt-M7fwxduHEvuQ-4" value="&lt;div style=&quot;color: rgb(212 , 212 , 212) ; background-color: rgb(30 , 30 , 30) ; font-family: &amp;#34;consolas&amp;#34; , &amp;#34;courier new&amp;#34; , monospace ; font-size: 14px ; line-height: 19px&quot;&gt;&lt;div&gt;&lt;span style=&quot;color: #c586c0&quot;&gt;import&lt;/span&gt; { &lt;span style=&quot;color: #9cdcfe&quot;&gt;createContext&lt;/span&gt; } &lt;span style=&quot;color: #c586c0&quot;&gt;from&lt;/span&gt; &lt;span style=&quot;color: #ce9178&quot;&gt;&#39;react&#39;&lt;/span&gt;;&lt;/div&gt;&lt;br&gt;&lt;div&gt;&lt;span style=&quot;color: #c586c0&quot;&gt;export&lt;/span&gt; &lt;span style=&quot;color: #569cd6&quot;&gt;const&lt;/span&gt; &lt;span style=&quot;color: #4fc1ff&quot;&gt;Context&lt;/span&gt; = &lt;span style=&quot;color: #dcdcaa&quot;&gt;createContext&lt;/span&gt;(&lt;span style=&quot;color: #ce9178&quot;&gt;&#39;init&#39;&lt;/span&gt;);&lt;/div&gt;&lt;/div&gt;" style="rounded=0;whiteSpace=wrap;html=1;align=left;fillColor=#121212;" parent="1" vertex="1">
          <mxGeometry x="-170" y="230" width="370" height="210" as="geometry" />
        </mxCell>
        <mxCell id="d0BUJUt-M7fwxduHEvuQ-5" value="&lt;br&gt;父组件&lt;br&gt;&lt;br&gt;&lt;div&gt;import { reducer } from &#39;./reducer&#39;;&lt;/div&gt;&lt;div&gt;import { store } from &#39;./store&#39;;&lt;/div&gt;&lt;div&gt;import { Context } from &#39;./context&#39;;&lt;/div&gt;&lt;div&gt;&lt;br&gt;&lt;/div&gt;&lt;div&gt;const [state, dispatch] = useReducer(&lt;b&gt;reducer&lt;/b&gt;,&amp;nbsp;&lt;b&gt;store&lt;/b&gt;)&lt;br&gt;&lt;/div&gt;&lt;br&gt;&amp;lt;Context.Provider value={{state，dispatch}}&amp;gt;&lt;br&gt;&amp;lt;Children&amp;gt;&lt;br&gt;&amp;lt;/Context.Provider&amp;gt;" style="rounded=0;whiteSpace=wrap;html=1;" parent="1" vertex="1">
          <mxGeometry x="-170" y="530" width="370" height="200" as="geometry" />
        </mxCell>
        <mxCell id="jBV2tDPOlEG2usraaHUX-3" style="edgeStyle=orthogonalEdgeStyle;rounded=0;orthogonalLoop=1;jettySize=auto;html=1;exitX=0.5;exitY=1;exitDx=0;exitDy=0;" edge="1" parent="1" source="d0BUJUt-M7fwxduHEvuQ-13">
          <mxGeometry relative="1" as="geometry">
            <mxPoint x="40" y="510" as="targetPoint" />
            <Array as="points">
              <mxPoint x="443" y="460" />
              <mxPoint x="40" y="460" />
            </Array>
          </mxGeometry>
        </mxCell>
        <mxCell id="d0BUJUt-M7fwxduHEvuQ-13" value="&lt;div style=&quot;color: rgb(212 , 212 , 212) ; background-color: rgb(30 , 30 , 30) ; font-family: &amp;#34;consolas&amp;#34; , &amp;#34;courier new&amp;#34; , monospace ; font-size: 14px ; line-height: 19px&quot;&gt;&lt;div style=&quot;font-family: &amp;#34;consolas&amp;#34; , &amp;#34;courier new&amp;#34; , monospace ; line-height: 19px&quot;&gt;&lt;div&gt;&lt;span style=&quot;color: #c586c0&quot;&gt;export&lt;/span&gt; &lt;span style=&quot;color: #569cd6&quot;&gt;function&lt;/span&gt; &lt;span style=&quot;color: #dcdcaa&quot;&gt;reducer&lt;/span&gt;(&lt;span style=&quot;color: #9cdcfe&quot;&gt;state&lt;/span&gt;: &lt;span style=&quot;color: #4ec9b0&quot;&gt;any&lt;/span&gt;, &lt;span style=&quot;color: #9cdcfe&quot;&gt;action&lt;/span&gt;: &lt;span style=&quot;color: #4ec9b0&quot;&gt;any&lt;/span&gt;) {&lt;/div&gt;&lt;div&gt;&amp;nbsp; &lt;span style=&quot;color: #c586c0&quot;&gt;switch&lt;/span&gt; (&lt;span style=&quot;color: #9cdcfe&quot;&gt;action&lt;/span&gt;.&lt;span style=&quot;color: #9cdcfe&quot;&gt;type&lt;/span&gt;) {&lt;/div&gt;&lt;div&gt;&amp;nbsp; &amp;nbsp; &lt;span style=&quot;color: #c586c0&quot;&gt;case&lt;/span&gt; &lt;span style=&quot;color: #ce9178&quot;&gt;&#39;gameID&#39;&lt;/span&gt;:&lt;/div&gt;&lt;div&gt;&amp;nbsp; &amp;nbsp; &amp;nbsp; &lt;span style=&quot;color: #c586c0&quot;&gt;return&lt;/span&gt; { ...&lt;span style=&quot;color: #9cdcfe&quot;&gt;state&lt;/span&gt;, &lt;span style=&quot;color: #9cdcfe&quot;&gt;gameID&lt;/span&gt;&lt;span style=&quot;color: #9cdcfe&quot;&gt;:&lt;/span&gt; &lt;span style=&quot;color: #9cdcfe&quot;&gt;action&lt;/span&gt;.&lt;span style=&quot;color: #9cdcfe&quot;&gt;value&lt;/span&gt; };&lt;/div&gt;&lt;div&gt;&amp;nbsp; &amp;nbsp; &lt;span style=&quot;color: #c586c0&quot;&gt;case&lt;/span&gt; &lt;span style=&quot;color: #ce9178&quot;&gt;&#39;appID&#39;&lt;/span&gt;:&lt;/div&gt;&lt;div&gt;&amp;nbsp; &amp;nbsp; &amp;nbsp; &lt;span style=&quot;color: #c586c0&quot;&gt;return&lt;/span&gt; { ...&lt;span style=&quot;color: #9cdcfe&quot;&gt;state&lt;/span&gt;, &lt;span style=&quot;color: #9cdcfe&quot;&gt;appID&lt;/span&gt;&lt;span style=&quot;color: #9cdcfe&quot;&gt;:&lt;/span&gt; &lt;span style=&quot;color: #9cdcfe&quot;&gt;action&lt;/span&gt;.&lt;span style=&quot;color: #9cdcfe&quot;&gt;value&lt;/span&gt; };&lt;/div&gt;&lt;div&gt;&amp;nbsp; &amp;nbsp; &lt;span style=&quot;color: #c586c0&quot;&gt;default&lt;/span&gt;:&lt;/div&gt;&lt;div&gt;&amp;nbsp; &amp;nbsp; &amp;nbsp; &lt;span style=&quot;color: #c586c0&quot;&gt;return&lt;/span&gt; &lt;span style=&quot;color: #9cdcfe&quot;&gt;state&lt;/span&gt;;&lt;/div&gt;&lt;div&gt;&amp;nbsp; }&lt;/div&gt;&lt;div&gt;}&lt;/div&gt;&lt;/div&gt;&lt;/div&gt;" style="rounded=0;whiteSpace=wrap;html=1;align=left;fillColor=#0F0F0F;" parent="1" vertex="1">
          <mxGeometry x="240" y="230" width="406" height="210" as="geometry" />
        </mxCell>
        <mxCell id="jBV2tDPOlEG2usraaHUX-4" style="edgeStyle=orthogonalEdgeStyle;rounded=0;orthogonalLoop=1;jettySize=auto;html=1;exitX=0.5;exitY=1;exitDx=0;exitDy=0;" edge="1" parent="1" source="d0BUJUt-M7fwxduHEvuQ-15">
          <mxGeometry relative="1" as="geometry">
            <mxPoint x="60" y="510" as="targetPoint" />
            <Array as="points">
              <mxPoint x="855" y="475" />
              <mxPoint x="60" y="475" />
              <mxPoint x="60" y="510" />
            </Array>
          </mxGeometry>
        </mxCell>
        <mxCell id="d0BUJUt-M7fwxduHEvuQ-15" value="&lt;div style=&quot;color: rgb(212 , 212 , 212) ; background-color: rgb(30 , 30 , 30) ; font-family: &amp;#34;consolas&amp;#34; , &amp;#34;courier new&amp;#34; , monospace ; font-size: 14px ; line-height: 19px&quot;&gt;&lt;div style=&quot;font-family: &amp;#34;consolas&amp;#34; , &amp;#34;courier new&amp;#34; , monospace ; line-height: 19px&quot;&gt;&lt;div&gt;&lt;span style=&quot;color: #c586c0&quot;&gt;export&lt;/span&gt; &lt;span style=&quot;color: #569cd6&quot;&gt;const&lt;/span&gt; &lt;span style=&quot;color: #4fc1ff&quot;&gt;store&lt;/span&gt; = {&lt;/div&gt;&lt;div&gt;&amp;nbsp; &lt;span style=&quot;color: #9cdcfe&quot;&gt;gameID&lt;/span&gt;&lt;span style=&quot;color: #9cdcfe&quot;&gt;:&lt;/span&gt; &lt;span style=&quot;color: #b5cea8&quot;&gt;11&lt;/span&gt;,&lt;/div&gt;&lt;div&gt;&amp;nbsp; &lt;span style=&quot;color: #9cdcfe&quot;&gt;appID&lt;/span&gt;&lt;span style=&quot;color: #9cdcfe&quot;&gt;:&lt;/span&gt; &lt;span style=&quot;color: #ce9178&quot;&gt;&#39;&#39;&lt;/span&gt;,&lt;/div&gt;&lt;div&gt;&amp;nbsp; &lt;span style=&quot;color: #9cdcfe&quot;&gt;accountPlatType&lt;/span&gt;&lt;span style=&quot;color: #9cdcfe&quot;&gt;:&lt;/span&gt; &lt;span style=&quot;color: #b5cea8&quot;&gt;52&lt;/span&gt;,&lt;/div&gt;&lt;div&gt;&amp;nbsp; &lt;span style=&quot;color: #9cdcfe&quot;&gt;langType&lt;/span&gt;&lt;span style=&quot;color: #9cdcfe&quot;&gt;:&lt;/span&gt; &lt;span style=&quot;color: #ce9178&quot;&gt;&#39;en&#39;&lt;/span&gt;,&lt;/div&gt;&lt;div&gt;&amp;nbsp; &lt;span style=&quot;color: #9cdcfe&quot;&gt;env&lt;/span&gt;&lt;span style=&quot;color: #9cdcfe&quot;&gt;:&lt;/span&gt; &lt;span style=&quot;color: #ce9178&quot;&gt;&#39;test&#39;&lt;/span&gt;,&lt;/div&gt;&lt;div&gt;&amp;nbsp; &lt;span style=&quot;color: #9cdcfe&quot;&gt;sdkType&lt;/span&gt;&lt;span style=&quot;color: #9cdcfe&quot;&gt;:&lt;/span&gt; &lt;span style=&quot;color: #ce9178&quot;&gt;&#39;intl&#39;&lt;/span&gt;,&lt;/div&gt;&lt;div&gt;&amp;nbsp; &lt;span style=&quot;color: #9cdcfe&quot;&gt;model&lt;/span&gt;&lt;span style=&quot;color: #9cdcfe&quot;&gt;:&lt;/span&gt; &lt;span style=&quot;color: #569cd6&quot;&gt;null&lt;/span&gt;,&lt;/div&gt;&lt;div&gt;};&lt;/div&gt;&lt;br&gt;&lt;/div&gt;&lt;/div&gt;" style="rounded=0;whiteSpace=wrap;html=1;align=left;fillColor=#242424;" parent="1" vertex="1">
          <mxGeometry x="680" y="230" width="350" height="210" as="geometry" />
        </mxCell>
        <mxCell id="d0BUJUt-M7fwxduHEvuQ-20" value="子组件&lt;br&gt;&lt;br&gt;&lt;div&gt;import { Context } from &#39;./context&#39;;&lt;/div&gt;&lt;div&gt;const {state, dispatch} = useContext(Context);&lt;/div&gt;&lt;div&gt;dispatch({ type: &#39;xxx&#39;, value: &#39;xxx&#39; })&lt;br&gt;&lt;/div&gt;&lt;div&gt;&lt;br&gt;&lt;/div&gt;" style="rounded=0;whiteSpace=wrap;html=1;fillColor=#FFFFFF;" parent="1" vertex="1">
          <mxGeometry x="240" y="530" width="410" height="200" as="geometry" />
        </mxCell>
        <mxCell id="jBV2tDPOlEG2usraaHUX-5" value="" style="endArrow=classic;startArrow=classic;html=1;rounded=0;exitX=1.005;exitY=0.56;exitDx=0;exitDy=0;exitPerimeter=0;entryX=-0.01;entryY=0.56;entryDx=0;entryDy=0;entryPerimeter=0;" edge="1" parent="1" source="d0BUJUt-M7fwxduHEvuQ-5" target="d0BUJUt-M7fwxduHEvuQ-20">
          <mxGeometry width="50" height="50" relative="1" as="geometry">
            <mxPoint x="210" y="640" as="sourcePoint" />
            <mxPoint x="230" y="640" as="targetPoint" />
            <Array as="points" />
          </mxGeometry>
        </mxCell>
      </root>
    </mxGraphModel>
  </diagram>
</mxfile>
